# xmcd
#
# Track frame offsets:
#	150
#	16336
#	40030
#	56447
#	70487
#	91785
#	119418
#	137266
#	161141
#	183235
#
# Disc length: 2797 seconds
#
# Revision: 0
# Processed by: cddbd v1.5.1PL0 Copyright (c) Steve Scherf et al.
# Submitted via: dBpowerAMP V4.0
#
DISCID=7b0aeb0a
DTITLE=Any Colour - Any Colour
DYEAR=2003
DGENRE=Blues
TTITLE0=In Case You Didn't Know
TTITLE1=Excluded
TTITLE2=Jazzmen Tea
TTITLE3=Unreal
TTITLE4=Somethings Doin'
TTITLE5=Beautiful Youth
TTITLE6=Triangular Circle
TTITLE7=Don't Care
TTITLE8=Back on Track
TTITLE9=Now You Know
EXTD=Drums: Mike Chaflin, Bass/guitar: Dave Lowenthal, Keys/guitar: Ben Albert
EXTT0=
EXTT1=
EXTT2=
EXTT3=
EXTT4=
EXTT5=
EXTT6=
EXTT7=
EXTT8=
EXTT9=
PLAYORDER=
